<svg width="43" height="43" viewBox="0 0 43 43" fill="none" xmlns="http://www.w3.org/2000/svg">
<path d="M42.5777 21.5486C42.5776 17.5471 41.4307 13.6294 39.2729 10.2595C37.1151 6.88958 34.0367 4.20869 30.4023 2.53428C26.7679 0.85987 22.7298 0.26209 18.7662 0.811735C14.8026 1.36138 11.0795 3.03542 8.03787 5.63561C4.99626 8.2358 2.76353 11.6532 1.60411 15.4831C0.444689 19.313 0.407142 23.3949 1.49592 27.2455C2.58469 31.0961 4.75418 34.554 7.74744 37.2097C10.7407 39.8654 14.4324 41.6076 18.3852 42.2301V27.6122H13.0597V21.5486H18.3759V16.9334C18.3759 11.6886 21.5023 8.7886 26.285 8.7886C27.8551 8.81057 29.4214 8.94741 30.9715 9.19802V14.3498H28.332C25.7298 14.3498 24.9203 15.9657 24.9203 17.6189V21.5486H30.7265L29.796 27.5998H24.9141V42.2301C29.8382 41.4496 34.3223 38.9381 37.5601 35.147C40.798 31.356 42.5772 26.5342 42.5777 21.5486Z" fill="#4676ED"/>
</svg>
