<svg width="32" height="32" viewBox="0 0 32 32" fill="none" xmlns="http://www.w3.org/2000/svg">
<rect width="32" height="32" rx="8" transform="matrix(-1 0 0 1 32 0)" fill="url(#paint0_linear_62_36966)"/>
<path d="M16.0025 7.80524C13.3328 7.80524 13.0175 7.80524 11.9598 7.86118C11.3259 7.86965 10.6982 7.9866 10.1037 8.20697C9.67273 8.37328 9.2813 8.62796 8.95462 8.95463C8.62795 9.2813 8.37327 9.67273 8.20696 10.1037C7.98601 10.698 7.86904 11.3259 7.86118 11.9598C7.81541 13.0175 7.80525 13.3328 7.80525 16.028C7.80525 18.7231 7.80524 19.013 7.86118 20.0656C7.86904 20.6996 7.98601 21.3274 8.20696 21.9217C8.36725 22.3572 8.62262 22.7516 8.95448 23.076C9.27842 23.4061 9.67069 23.6612 10.1037 23.8235C10.698 24.0441 11.326 24.1593 11.9598 24.1642C13.0175 24.2151 13.3328 24.2253 16.0025 24.2253C18.6723 24.2253 18.9875 24.2253 20.0402 24.1642C20.6756 24.1591 21.3053 24.0438 21.9013 23.8235C22.3332 23.6572 22.7252 23.402 23.052 23.0743C23.3787 22.7467 23.633 22.354 23.7981 21.9217C24.0191 21.3274 24.136 20.6996 24.1439 20.0656C24.1897 19.013 24.1998 18.6977 24.1998 16.028C24.1998 13.3583 24.1998 13.043 24.1439 11.9598C24.136 11.3259 24.0191 10.698 23.7981 10.1037C23.6318 9.67273 23.3771 9.2813 23.0504 8.95463C22.7238 8.62796 22.3323 8.37328 21.9013 8.20697C21.3051 7.9868 20.6757 7.86986 20.0402 7.86118C18.9875 7.81541 18.6723 7.80524 16.0025 7.80524ZM16.0025 6C18.718 6 19.0536 6 20.1266 6.06102C20.9558 6.07867 21.776 6.23686 22.5523 6.52886C23.2172 6.78425 23.8212 7.17651 24.3249 7.68022C24.8286 8.18392 25.2208 8.78784 25.4762 9.45284C25.7686 10.2288 25.9251 11.0494 25.939 11.8785C25.9898 12.9464 26 13.2871 26 16.0025C26 18.718 26 19.0536 25.939 20.1266C25.9251 20.9557 25.7686 21.7763 25.4762 22.5522C25.2266 23.22 24.8324 23.8243 24.3219 24.3219C23.8229 24.8307 23.219 25.2247 22.5523 25.4762C21.7763 25.7686 20.9557 25.9251 20.1266 25.939C19.0587 25.9898 18.718 26 16.0025 26C13.2871 26 12.9514 26 11.8785 25.939C11.0493 25.9251 10.2288 25.7686 9.45284 25.4762C8.78928 25.2184 8.18665 24.8252 7.68325 24.3218C7.17986 23.8184 6.78673 23.2158 6.52886 22.5522C6.23687 21.776 6.07867 20.9558 6.06102 20.1266C6.01525 19.0587 6 18.718 6 16.0025C6 13.2871 6 12.9514 6.06102 11.8785C6.07867 11.0493 6.23687 10.2291 6.52886 9.45284C6.78426 8.78784 7.17651 8.18392 7.68021 7.68022C8.18392 7.17651 8.78784 6.78425 9.45284 6.52886C10.2291 6.23686 11.0493 6.07867 11.8785 6.06102C12.9463 6.01526 13.2871 6 16.0025 6Z" fill="white"/>
<path d="M16 11C16.9889 11 17.9556 11.2932 18.7778 11.8427C19.6001 12.3921 20.241 13.173 20.6194 14.0866C20.9978 15.0002 21.0968 16.0055 20.9039 16.9754C20.711 17.9454 20.2348 18.8363 19.5355 19.5355C18.8363 20.2348 17.9454 20.711 16.9754 20.9039C16.0055 21.0969 15.0002 20.9978 14.0866 20.6194C13.173 20.241 12.3921 19.6001 11.8426 18.7779C11.2932 17.9556 11 16.9889 11 16C11 14.6739 11.5268 13.4021 12.4645 12.4645C13.4021 11.5268 14.6739 11 16 11ZM16 19.2426C16.6429 19.2426 17.2714 19.0517 17.8058 18.6942C18.3401 18.3367 18.7564 17.8286 19.0017 17.2344C19.2471 16.6401 19.3105 15.9864 19.184 15.356C19.0575 14.7256 18.7467 14.147 18.291 13.6934C17.8354 13.2399 17.2553 12.9317 16.6244 12.8081C15.9935 12.6845 15.34 12.7509 14.7469 12.999C14.1538 13.2471 13.6476 13.6656 13.2926 14.2016C12.9375 14.7376 12.7495 15.367 12.7525 16.0099C12.7525 16.4361 12.8365 16.8582 12.9998 17.2519C13.163 17.6457 13.4023 18.0033 13.7039 18.3045C14.0056 18.6057 14.3636 18.8444 14.7576 19.0071C15.1516 19.1697 15.5738 19.2531 16 19.2525" fill="white"/>
<path d="M9 10.5C9 10.7967 9.08798 11.0867 9.2528 11.3334C9.41762 11.58 9.65189 11.7723 9.92598 11.8858C10.2001 11.9993 10.5017 12.0291 10.7926 11.9712C11.0836 11.9133 11.3509 11.7704 11.5607 11.5607C11.7704 11.3509 11.9133 11.0836 11.9712 10.7926C12.0291 10.5017 11.9994 10.2001 11.8858 9.92597C11.7723 9.65188 11.58 9.41762 11.3334 9.25279C11.0867 9.08797 10.7967 9 10.5 9C10.1022 9 9.72064 9.15803 9.43934 9.43934C9.15803 9.72064 9 10.1022 9 10.5Z" fill="white"/>
<defs>
<linearGradient id="paint0_linear_62_36966" x1="25" y1="2.5" x2="-1.51619e-06" y2="28" gradientUnits="userSpaceOnUse">
<stop stop-color="#9B3C99"/>
<stop offset="0.51" stop-color="#CE506C"/>
<stop offset="1" stop-color="#E79346"/>
</linearGradient>
</defs>
</svg>
