<svg width="32" height="32" viewBox="0 0 32 32" fill="none" xmlns="http://www.w3.org/2000/svg">
<g clip-path="url(#clip0_62_36974)">
<rect width="32" height="32" rx="8" fill="#117BB8"/>
<path d="M15.9978 31.9955C11.7549 31.9955 7.6858 30.3101 4.68563 27.3099C1.68547 24.3097 0 20.2406 0 15.9978C0 11.7549 1.68547 7.6858 4.68563 4.68563C7.6858 1.68547 11.7549 6.22085e-07 15.9978 6.22085e-07C18.099 -0.000585332 20.1798 0.412776 22.1212 1.21648C24.0627 2.02018 25.8268 3.19847 27.3128 4.68406C28.7988 6.16964 29.9776 7.93343 30.7818 9.87466C31.5861 11.8159 32 13.8965 32 15.9978C32 18.099 31.5861 20.1796 30.7818 22.1209C29.9776 24.0621 28.7988 25.8259 27.3128 27.3115C25.8268 28.7971 24.0627 29.9754 22.1212 30.7791C20.1798 31.5828 18.099 31.9961 15.9978 31.9955Z" fill="#117BB8"/>
<path d="M12.0538 12.4326H8.74365V23.1305H12.0538V12.4326Z" fill="white"/>
<path d="M10.3862 11.0331C10.7778 11.0366 11.1616 10.9237 11.489 10.7087C11.8163 10.4937 12.0724 10.1863 12.2247 9.82553C12.3771 9.46473 12.4187 9.06682 12.3445 8.68229C12.2703 8.29775 12.0835 7.94394 11.8078 7.66576C11.5322 7.38759 11.1801 7.19758 10.7962 7.11987C10.4124 7.04215 10.0141 7.08024 9.65192 7.22928C9.28976 7.37832 8.98005 7.63161 8.76209 7.95698C8.54413 8.28236 8.42776 8.66515 8.42774 9.05678C8.42655 9.57821 8.63194 10.0789 8.99897 10.4493C9.366 10.8196 9.86478 11.0295 10.3862 11.0331Z" fill="white"/>
<path d="M17.3495 17.5147C17.3495 16.0112 18.041 15.1145 19.3659 15.1145C20.5838 15.1145 21.1504 15.9756 21.1504 17.5147V23.1268H24.4472V16.3548C24.4472 13.4907 22.8233 12.1033 20.5526 12.1033C19.9071 12.0961 19.2709 12.2568 18.7062 12.5697C18.1416 12.8825 17.6679 13.3367 17.3316 13.8877V12.4468H14.1553V23.1536H17.3316L17.3495 17.5147Z" fill="white"/>
</g>
<defs>
<clipPath id="clip0_62_36974">
<rect width="32" height="32" rx="8" fill="white"/>
</clipPath>
</defs>
</svg>
