<svg width="20" height="20" viewBox="0 0 20 20" fill="none" xmlns="http://www.w3.org/2000/svg">
<path d="M16.1105 12.2227C15.4804 12.2232 14.8599 12.377 14.3026 12.6709C13.7452 12.9647 13.2677 13.3898 12.9113 13.9094L7.48716 11.4602C7.87242 10.5299 7.87392 9.48495 7.49132 8.55354L12.908 6.09187C13.4362 6.85584 14.2208 7.40518 15.1193 7.64024C16.0179 7.87531 16.9709 7.78054 17.8056 7.37312C18.6403 6.9657 19.3013 6.27262 19.6687 5.4196C20.0361 4.56657 20.0857 3.6101 19.8083 2.72368C19.5309 1.83727 18.9451 1.07962 18.1569 0.588169C17.3688 0.0967179 16.4306 -0.0959833 15.5126 0.0450196C14.5946 0.186023 13.7575 0.65139 13.1532 1.35671C12.5489 2.06203 12.2174 2.96058 12.2188 3.88937C12.2224 4.10921 12.2447 4.32834 12.2855 4.54437L6.52716 7.16104C5.97411 6.64289 5.28175 6.29757 4.53514 6.16751C3.78853 6.03745 3.02018 6.1283 2.3245 6.42892C1.62882 6.72954 1.0361 7.22682 0.619156 7.85968C0.202215 8.49253 -0.0207864 9.23339 -0.0224515 9.99125C-0.0241167 10.7491 0.195627 11.4909 0.609783 12.1256C1.02394 12.7603 1.61447 13.2602 2.30882 13.5639C3.00318 13.8675 3.77112 13.9618 4.51829 13.835C5.26547 13.7082 5.95934 13.3659 6.51466 12.8502L12.288 15.4569C12.2479 15.6727 12.2259 15.8915 12.2222 16.111C12.222 16.8803 12.45 17.6324 12.8773 18.2721C13.3045 18.9118 13.9119 19.4104 14.6226 19.7048C15.3333 19.9993 16.1154 20.0764 16.8699 19.9264C17.6244 19.7763 18.3174 19.4059 18.8614 18.8619C19.4053 18.318 19.7758 17.6249 19.9258 16.8704C20.0758 16.1159 19.9988 15.3339 19.7043 14.6232C19.4098 13.9125 18.9112 13.3051 18.2715 12.8778C17.6318 12.4505 16.8798 12.2225 16.1105 12.2227ZM16.1105 1.66687C16.5501 1.66671 16.9799 1.79692 17.3455 2.04103C17.7111 2.28514 17.9961 2.63219 18.1644 3.03828C18.3328 3.44438 18.3769 3.89127 18.2912 4.32245C18.2056 4.75363 17.994 5.14972 17.6832 5.46062C17.3724 5.77153 16.9764 5.98328 16.5452 6.06911C16.1141 6.15493 15.6672 6.11097 15.261 5.94278C14.8548 5.77458 14.5077 5.48972 14.2634 5.12422C14.0192 4.75871 13.8888 4.32898 13.8888 3.88937C13.8893 3.30021 14.1235 2.73529 14.54 2.31861C14.9565 1.90193 15.5213 1.66754 16.1105 1.66687ZM3.88883 12.2227C3.44922 12.2229 3.01944 12.0927 2.65384 11.8486C2.28825 11.6044 2.00325 11.2574 1.83491 10.8513C1.66657 10.4452 1.62243 9.99831 1.7081 9.56713C1.79376 9.13595 2.00536 8.73986 2.31615 8.42896C2.62694 8.11805 3.02295 7.9063 3.4541 7.82047C3.88524 7.73465 4.33216 7.77861 4.73831 7.94681C5.14447 8.115 5.49163 8.39986 5.73588 8.76537C5.98012 9.13087 6.11049 9.5606 6.11049 10.0002C6.10983 10.5893 5.87558 11.1541 5.4591 11.5707C5.04262 11.9874 4.47792 12.2218 3.88883 12.2227ZM16.1105 18.3335C15.6709 18.3335 15.2412 18.2032 14.8757 17.959C14.5102 17.7148 14.2254 17.3677 14.0572 16.9616C13.889 16.5554 13.8449 16.1086 13.9307 15.6775C14.0165 15.2463 14.2281 14.8503 14.5389 14.5395C14.8498 14.2287 15.2458 14.017 15.6769 13.9312C16.108 13.8455 16.5549 13.8895 16.961 14.0577C17.3671 14.2259 17.7142 14.5108 17.9584 14.8763C18.2026 15.2418 18.333 15.6715 18.333 16.111C18.3326 16.7003 18.0983 17.2654 17.6816 17.6821C17.2648 18.0988 16.6998 18.3331 16.1105 18.3335Z" fill="#B13DFF"/>
</svg>
