<svg width="32" height="32" viewBox="0 0 32 32" fill="none" xmlns="http://www.w3.org/2000/svg">
<g clip-path="url(#clip0_62_36982)">
<rect width="32" height="32" rx="8" fill="#050505"/>
<path d="M15.9978 32C11.7564 32 7.6887 30.3157 4.6888 27.3175C1.68889 24.3193 0.00237109 20.2525 5.59877e-06 16.0112C-0.00175289 13.9092 0.410743 11.8274 1.21392 9.88496C2.01709 7.94248 3.1952 6.17732 4.68091 4.69037C6.16662 3.20342 7.93079 2.02384 9.8726 1.21904C11.8144 0.414235 13.8958 -7.35564e-07 15.9978 0C18.0998 -7.35564e-07 20.1811 0.414235 22.1229 1.21904C24.0648 2.02384 25.8289 3.20342 27.3146 4.69037C28.8003 6.17732 29.9785 7.94248 30.7816 9.88496C31.5848 11.8274 31.9973 13.9092 31.9955 16.0112C31.9932 20.2525 30.3067 24.3193 27.3068 27.3175C24.3068 30.3157 20.2391 32 15.9978 32Z" fill="#050505"/>
<path d="M22.4002 22.8737C22.3485 22.9678 22.2726 23.0462 22.1804 23.1009C22.0881 23.1557 21.9828 23.1846 21.8755 23.1848H18.2779C18.177 23.1847 18.0778 23.1592 17.9893 23.1106C17.9009 23.062 17.8261 22.9919 17.772 22.9067L14.7373 18.1377L10.3273 22.9884C10.2198 23.1039 10.0711 23.1723 9.91345 23.1789C9.7558 23.1855 9.60192 23.1297 9.48516 23.0236C9.36839 22.9175 9.29816 22.7696 9.28968 22.6121C9.28121 22.4545 9.33517 22.3 9.43988 22.1819L14.0695 17.0854L9.37767 9.71631C9.31989 9.62566 9.28754 9.52113 9.28401 9.41368C9.28049 9.30623 9.30592 9.19981 9.35764 9.10557C9.40936 9.01132 9.48547 8.93271 9.578 8.87797C9.67053 8.82323 9.77607 8.79438 9.88358 8.79443H13.4812C13.5821 8.79446 13.6814 8.81997 13.7698 8.86857C13.8582 8.91718 13.933 8.98732 13.9871 9.0725L17.0218 13.8415L21.4318 8.9908C21.5393 8.87532 21.688 8.80686 21.8457 8.80028C22.0033 8.79369 22.1572 8.8495 22.2739 8.95562C22.3907 9.06173 22.4609 9.20959 22.4694 9.36714C22.4779 9.52469 22.4239 9.67923 22.3192 9.79726L17.6896 14.8901L22.3814 22.2636C22.4389 22.3543 22.471 22.4588 22.4742 22.5661C22.4775 22.6734 22.452 22.7797 22.4002 22.8737Z" fill="white"/>
</g>
<defs>
<clipPath id="clip0_62_36982">
<rect width="32" height="32" rx="8" fill="white"/>
</clipPath>
</defs>
</svg>
