<svg width="43" height="43" viewBox="0 0 43 43" fill="none" xmlns="http://www.w3.org/2000/svg">
<path d="M21.808 42.4968C33.3738 42.4968 42.7497 33.1209 42.7497 21.555C42.7497 9.98923 33.3738 0.613281 21.808 0.613281C10.2422 0.613281 0.866211 9.98923 0.866211 21.555C0.866211 33.1209 10.2422 42.4968 21.808 42.4968Z" fill="url(#paint0_linear_62_35405)"/>
<path fill-rule="evenodd" clip-rule="evenodd" d="M31.8809 11.7383C29.6037 9.45532 26.574 8.07848 23.3566 7.8645C20.1392 7.65053 16.9538 8.61404 14.3944 10.5754C11.835 12.5367 10.0763 15.3619 9.44626 18.5243C8.81622 21.6866 9.35784 24.9702 10.9701 27.7626L9.08691 34.6439L16.1264 32.798C18.0757 33.8574 20.2587 34.413 22.4772 34.4144C25.1045 34.4146 27.6728 33.6357 29.8575 32.1764C32.0422 30.717 33.7451 28.6427 34.751 26.2156C35.7568 23.7885 36.0204 21.1176 35.5084 18.5407C34.9965 15.9638 33.7319 13.5966 31.8747 11.7383H31.8809ZM22.4803 32.1713C20.5024 32.1666 18.5619 31.6309 16.8617 30.62L16.4584 30.3811L12.2794 31.4763L13.3777 27.4152L13.1295 26.9994C11.8287 24.9255 11.2541 22.4781 11.4959 20.042C11.7377 17.6058 12.7823 15.3191 14.4653 13.5414C16.1484 11.7636 18.3746 10.5956 20.7938 10.221C23.2131 9.8463 25.6882 10.2863 27.8302 11.4717C29.9721 12.657 31.6594 14.5207 32.6268 16.7695C33.5941 19.0184 33.7867 21.525 33.1742 23.8952C32.5617 26.2654 31.1789 28.3649 29.2431 29.8636C27.3074 31.3622 24.9284 32.1751 22.4803 32.1744V32.1713ZM28.5395 23.8969C28.2075 23.7294 26.5756 22.929 26.2716 22.8173C25.9675 22.7056 25.7442 22.6528 25.5239 22.9848C25.3036 23.3168 24.6676 24.0645 24.4721 24.2847C24.2767 24.505 24.0843 24.5329 23.7524 24.3685C22.7748 23.977 21.8722 23.4197 21.0842 22.7211C20.3531 22.0514 19.7258 21.2766 19.2227 20.4222C19.0273 20.0902 19.201 19.9102 19.3685 19.7458C19.5361 19.5814 19.7005 19.358 19.8649 19.1625C20.0029 18.9997 20.1168 18.8179 20.2031 18.6227C20.2467 18.5307 20.2669 18.4293 20.262 18.3276C20.2572 18.2259 20.2273 18.1269 20.1752 18.0394C20.0914 17.875 19.4275 16.24 19.1514 15.5761C18.8752 14.9121 18.6084 15.0176 18.4068 15.0083C18.2051 14.999 17.9911 15.0083 17.7677 15.0083C17.5996 15.0131 17.4344 15.0525 17.2822 15.124C17.1301 15.1955 16.9943 15.2977 16.8835 15.4241C16.5086 15.7796 16.2119 16.2092 16.0121 16.6857C15.8123 17.1621 15.7139 17.6749 15.7231 18.1915C15.7231 19.8234 16.9114 21.4025 17.0789 21.6228C17.2464 21.8431 19.4182 25.1969 22.7472 26.6333C23.3654 26.8996 23.9971 27.1337 24.6397 27.3345C25.3171 27.5399 26.0331 27.5846 26.7307 27.4648C27.3698 27.3686 28.6946 26.6613 28.9707 25.8887C29.2469 25.1162 29.25 24.4492 29.1662 24.3096C29.0824 24.17 28.8715 24.0707 28.5395 23.8969Z" fill="white"/>
<defs>
<linearGradient id="paint0_linear_62_35405" x1="21.808" y1="39.4533" x2="21.808" y2="-2.43025" gradientUnits="userSpaceOnUse">
<stop stop-color="#78CD51"/>
<stop offset="1" stop-color="#A0FC84"/>
</linearGradient>
</defs>
</svg>
