<svg width="43" height="43" viewBox="0 0 43 43" fill="none" xmlns="http://www.w3.org/2000/svg">
<path d="M21.3676 42.4968C32.9334 42.4968 42.3093 33.1209 42.3093 21.555C42.3093 9.98922 32.9334 0.613281 21.3676 0.613281C9.80174 0.613281 0.425781 9.98922 0.425781 21.555C0.425781 33.1209 9.80174 42.4968 21.3676 42.4968Z" fill="#DA0000"/>
<path d="M34.3999 15.0632C34.2449 14.4891 33.9398 13.9656 33.5154 13.5454C33.0909 13.1253 32.562 12.8232 31.9821 12.6698C29.8726 12.1313 21.368 12.1313 21.368 12.1313C21.368 12.1313 12.8634 12.1313 10.7418 12.6938C10.1619 12.8472 9.63303 13.1492 9.20856 13.5694C8.78409 13.9895 8.479 14.513 8.32404 15.0871C7.75586 17.1813 7.75586 21.5671 7.75586 21.5671C7.75586 21.5671 7.75586 25.9499 8.32404 28.0501C8.48048 28.6218 8.78631 29.1427 9.21075 29.5602C9.6352 29.9777 10.1633 30.2772 10.7418 30.4285C12.8634 30.9789 21.368 30.9789 21.368 30.9789C21.368 30.9789 29.8726 30.9789 31.9942 30.4165C32.5727 30.2652 33.1008 29.9658 33.5253 29.5482C33.9497 29.1307 34.2555 28.6098 34.412 28.0381C34.9801 25.9439 34.9801 21.5551 34.9801 21.5551C34.9801 21.5551 34.9681 17.1633 34.3999 15.0632ZM18.648 25.5939V17.5164L25.714 21.5551L18.648 25.5939Z" fill="white"/>
</svg>
